<svg width="32" height="32" viewBox="0 0 32 32" fill="none" xmlns="http://www.w3.org/2000/svg">
<path fill-rule="evenodd" clip-rule="evenodd" d="M23.9007 10.8333C24.3954 11.3793 24.2441 12.2173 23.6407 12.64L20.3927 14.9187C19.7901 15.3413 18.9661 15.1707 18.3707 14.7387C17.7006 14.2507 16.8962 13.9816 16.0674 13.968C15.2386 13.9544 14.4257 14.1965 13.7394 14.6613C13.1294 15.074 12.3007 15.2173 11.7127 14.7747L8.5414 12.3893C7.9534 11.9467 7.8294 11.1033 8.34206 10.5747C9.35727 9.52771 10.5764 8.70004 11.9241 8.1428C13.2718 7.58557 14.7194 7.31061 16.1776 7.33492C17.6357 7.35922 19.0734 7.68227 20.4018 8.28411C21.7301 8.88595 22.921 9.75312 23.9007 10.8333ZM22.7974 11.604C21.9426 10.6956 20.9145 9.96776 19.7737 9.46346C18.6329 8.95916 17.4025 8.68864 16.1554 8.66788C14.9083 8.64712 13.6696 8.87655 12.5127 9.34261C11.3557 9.80866 10.3039 10.5019 9.4194 11.3813L12.5114 13.7067C12.5398 13.7134 12.5692 13.7148 12.5981 13.7107C12.7027 13.7013 12.8494 13.6533 12.9914 13.5573C13.9335 12.9191 15.0542 12.5969 16.1914 12.6373C16.2175 12.5828 16.2509 12.5321 16.2907 12.4867L18.1214 10.3813C18.2374 10.2478 18.4017 10.1659 18.5781 10.1535C18.7545 10.1411 18.9286 10.1994 19.0621 10.3153C19.1956 10.4313 19.2775 10.5956 19.2899 10.772C19.3023 10.9484 19.2441 11.1225 19.1281 11.256L17.6914 12.908C18.2149 13.0817 18.7085 13.3351 19.1547 13.6593C19.2934 13.76 19.4381 13.8127 19.5427 13.826C19.5934 13.8327 19.6201 13.828 19.6294 13.8253L22.7974 11.604ZM19.6354 13.8233L19.6294 13.8253C19.6321 13.8233 19.6347 13.8227 19.6354 13.8233ZM12.5061 13.7047C12.5061 13.7047 12.5081 13.7047 12.5114 13.7067L12.5061 13.7047Z" fill="#61AF2B"/>
<path fill-rule="evenodd" clip-rule="evenodd" d="M24.144 28C24.8257 28 25.4814 27.739 25.9766 27.2706C26.4718 26.8022 26.7689 26.1619 26.8067 25.4813L27.844 6.81467C27.8642 6.45256 27.8102 6.09016 27.6855 5.74961C27.5608 5.40907 27.3679 5.09754 27.1187 4.83408C26.8694 4.57062 26.5691 4.36077 26.236 4.21736C25.9029 4.07395 25.544 3.99999 25.1814 4H6.8187C6.45609 4.00008 6.09731 4.0741 5.76428 4.21756C5.43126 4.36101 5.13098 4.57088 4.88183 4.83432C4.63267 5.09777 4.43986 5.40927 4.31518 5.74977C4.1905 6.09027 4.13657 6.45262 4.1567 6.81467L5.19336 25.4813C5.2312 26.1619 5.52822 26.8022 6.02342 27.2706C6.51861 27.739 7.17439 28 7.85603 28H24.144ZM7.85603 26.6667H24.144C24.485 26.6667 24.8129 26.5361 25.0606 26.3017C25.3082 26.0674 25.4566 25.7471 25.4754 25.4067L26.5127 6.74C26.5227 6.559 26.4956 6.37787 26.4332 6.20768C26.3708 6.03748 26.2744 5.8818 26.1498 5.75014C26.0252 5.61849 25.875 5.51362 25.7085 5.44196C25.542 5.37029 25.3626 5.33333 25.1814 5.33333H6.8187C6.63742 5.33333 6.45806 5.37029 6.29155 5.44196C6.12505 5.51362 5.9749 5.61849 5.8503 5.75014C5.72569 5.8818 5.62924 6.03748 5.56684 6.20768C5.50444 6.37787 5.47739 6.559 5.48736 6.74L6.5247 25.4067C6.54345 25.7471 6.69189 26.0674 6.93951 26.3017C7.18712 26.5361 7.5151 26.6667 7.85603 26.6667Z" fill="#61AF2B"/>
</svg>
