<svg width="27" height="24" viewBox="0 0 27 24" fill="none" xmlns="http://www.w3.org/2000/svg">
<path d="M26.8391 12.1235L24.8693 1.56654C24.8211 1.30921 24.7209 1.06444 24.5746 0.847297C24.4284 0.630152 24.2393 0.445215 24.019 0.303859C23.7986 0.162503 23.5517 0.0677162 23.2933 0.0253279C23.035 -0.0170604 22.7707 -0.00615441 22.5168 0.0573753L22.4796 0.0681722L16.179 1.92643H10.6966L4.39604 0.0741703L4.35885 0.0633735C4.10488 -0.000156252 3.8406 -0.0110623 3.58227 0.0313261C3.32393 0.0737144 3.07699 0.168501 2.85664 0.309857C2.63629 0.451213 2.44719 0.63615 2.30096 0.853295C2.15473 1.07044 2.05447 1.3152 2.00633 1.57253L0.036509 12.1235C-0.0477266 12.546 0.0148004 12.9847 0.213748 13.3668C0.412695 13.749 0.736143 14.0519 1.13059 14.2252C1.3832 14.3411 1.65765 14.4016 1.93556 14.4028C2.26818 14.4026 2.59466 14.3131 2.88088 14.1437V19.2014C2.88088 20.4741 3.38644 21.6946 4.28636 22.5945C5.18627 23.4944 6.40681 24 7.67948 24H19.1961C20.4688 24 21.6893 23.4944 22.5892 22.5945C23.4892 21.6946 23.9947 20.4741 23.9947 19.2014V14.1449C24.2806 14.314 24.6066 14.4035 24.9388 14.404C25.217 14.4032 25.4919 14.3431 25.745 14.2276C26.1399 14.0542 26.4637 13.751 26.6627 13.3683C26.8617 12.9856 26.9239 12.5464 26.8391 12.1235ZM1.92116 12.4834L3.89218 1.92643L8.93911 3.4104L1.92116 12.4834ZM19.1961 22.0806H14.3975V20.5582L16.0362 18.9207C16.2163 18.7406 16.3175 18.4963 16.3175 18.2417C16.3175 17.987 16.2163 17.7428 16.0362 17.5627C15.8562 17.3826 15.6119 17.2814 15.3572 17.2814C15.1026 17.2814 14.8583 17.3826 14.6782 17.5627L13.4378 18.8043L12.1974 17.5627C12.0173 17.3826 11.773 17.2814 11.5184 17.2814C11.2637 17.2814 11.0194 17.3826 10.8394 17.5627C10.6593 17.7428 10.5581 17.987 10.5581 18.2417C10.5581 18.4963 10.6593 18.7406 10.8394 18.9207L12.4781 20.5582V22.0806H7.67948C6.91588 22.0806 6.18355 21.7772 5.64361 21.2373C5.10366 20.6973 4.80032 19.965 4.80032 19.2014V11.8967L11.0289 3.84587H15.8455L22.0753 11.8967V19.2014C22.0753 19.965 21.7719 20.6973 21.232 21.2373C20.692 21.7772 19.9597 22.0806 19.1961 22.0806ZM24.9544 12.4834L17.9365 3.4104L22.9834 1.92643L24.9544 12.4834ZM10.5586 13.9229C10.5586 14.2077 10.4742 14.486 10.316 14.7227C10.1578 14.9595 9.93301 15.144 9.66996 15.2529C9.40691 15.3619 9.11746 15.3904 8.83821 15.3349C8.55896 15.2793 8.30245 15.1422 8.10112 14.9409C7.89979 14.7395 7.76269 14.483 7.70714 14.2038C7.65159 13.9245 7.6801 13.6351 7.78906 13.372C7.89802 13.109 8.08254 12.8841 8.31927 12.726C8.55601 12.5678 8.83434 12.4834 9.11906 12.4834C9.50086 12.4834 9.86702 12.635 10.137 12.905C10.407 13.175 10.5586 13.5411 10.5586 13.9229ZM19.1961 13.9229C19.1961 14.2077 19.1117 14.486 18.9535 14.7227C18.7953 14.9595 18.5705 15.144 18.3074 15.2529C18.0444 15.3619 17.7549 15.3904 17.4757 15.3349C17.1964 15.2793 16.9399 15.1422 16.7386 14.9409C16.5373 14.7395 16.4002 14.483 16.3446 14.2038C16.2891 13.9245 16.3176 13.6351 16.4265 13.372C16.5355 13.109 16.72 12.8841 16.9568 12.726C17.1935 12.5678 17.4718 12.4834 17.7565 12.4834C18.1383 12.4834 18.5045 12.635 18.7745 12.905C19.0445 13.175 19.1961 13.5411 19.1961 13.9229Z" fill="#61AF2B"/>
</svg>
