<svg width="30" height="30" viewBox="0 0 30 30" fill="none" xmlns="http://www.w3.org/2000/svg">
<path d="M14.0185 11.4179C15.4165 11.1803 16.4533 9.90705 16.6111 8.38605C16.7713 6.83925 17.1325 0.623249 14.7991 1.01865C8.74628 2.04525 9.17108 12.2399 14.0185 11.4179ZM21.9823 11.4179C26.8285 12.2399 27.2533 2.04525 21.2005 1.01805C18.8677 0.622649 19.2283 6.83865 19.3879 8.38545C19.5463 9.90705 20.5843 11.1803 21.9823 11.4179ZM11.5321 16.2208C11.5321 15.4121 11.2435 14.6789 10.7785 14.1454C10.0135 13.1459 7.58168 11.1245 6.98468 11.6423C5.73848 12.7259 5.77868 15.3928 6.52928 17.3309C6.91508 18.4085 7.84688 19.1663 8.93588 19.1663C10.3693 19.1663 11.5321 17.8475 11.5321 16.2208ZM29.0143 11.6423C28.4185 11.1245 25.9867 13.1459 25.2217 14.1454C24.7567 14.6789 24.4675 15.4121 24.4675 16.2208C24.4675 17.8475 25.6315 19.1663 27.0637 19.1663C28.1533 19.1663 29.0857 18.4085 29.4715 17.3309C30.2203 15.3928 30.2617 12.7259 29.0143 11.6423ZM24.1327 20.8085C21.9271 19.7087 21.9955 17.5907 21.4939 15.658C21.0949 14.1166 19.6819 12.9767 18.0001 12.9767C17.22 12.9746 16.4603 13.2256 15.835 13.6921C15.2098 14.1587 14.7528 14.8154 14.5327 15.5639C13.9957 17.413 14.3191 19.5658 11.9149 20.7941C9.96188 21.4307 9.17108 22.3594 9.17108 24.556C9.17108 26.3405 10.7029 28.2509 12.6799 28.4885C14.8855 28.8209 16.6063 28.3865 18.0001 27.5921C19.3939 28.3865 21.1135 28.8203 23.3227 28.4885C25.2985 28.2509 26.8309 26.3477 26.8309 24.556C26.8303 22.3115 26.0899 21.4751 24.1327 20.8085ZM21.5305 23.4929H19.2439L19.2469 25.8929H16.7533L16.7569 23.4929H14.3305V21.0928H16.7575L16.7539 18.6929H19.2475L19.2445 21.0928H21.5305V23.4929Z" fill="#777777" fill-opacity="0.75"/>
</svg>
