<svg width="32" height="32" viewBox="0 0 32 32" fill="none" xmlns="http://www.w3.org/2000/svg">
<path opacity="0.5" d="M16 7.43199L15.2693 8.11465C15.3628 8.21477 15.476 8.2946 15.6017 8.34918C15.7274 8.40376 15.8629 8.43192 16 8.43192C16.137 8.43192 16.2726 8.40376 16.3982 8.34918C16.5239 8.2946 16.6371 8.21477 16.7306 8.11465L16 7.43199ZM12.5786 25.0613C10.6453 23.4933 8.38929 21.436 6.62396 19.184C4.83863 16.908 3.66663 14.5707 3.66663 12.424H1.66663C1.66663 15.2467 3.17329 18.0267 5.04929 20.4187C6.94529 22.836 9.32929 25 11.3186 26.6147L12.5786 25.0613ZM3.66663 12.424C3.66663 8.55065 5.35729 6.15732 7.44796 5.33732C9.53463 4.51999 12.4533 5.10399 15.2693 8.11465L16.7306 6.74932C13.5466 3.34399 9.79863 2.26932 6.71863 3.47465C3.64263 4.67999 1.66663 7.98932 1.66663 12.424H3.66663ZM20.68 26.6133C22.6706 24.9987 25.0546 22.8347 26.9506 20.4173C28.8266 18.0253 30.3333 15.2453 30.3333 12.4213H28.3333C28.3333 14.5707 27.16 16.9067 25.376 19.1827C23.6106 21.4347 21.3546 23.492 19.4213 25.06L20.68 26.6133ZM30.3333 12.4213C30.3333 7.98799 28.3573 4.67865 25.28 3.47465C22.2 2.26799 18.4533 3.34132 15.2693 6.74799L16.7306 8.11465C19.5466 5.10399 22.4653 4.51865 24.552 5.33599C26.6426 6.15465 28.3333 8.54932 28.3333 12.4213H30.3333ZM11.3186 26.6147C13.012 27.9907 14.1893 29 16 29V27C15.036 27 14.436 26.568 12.5786 25.0613L11.3186 26.6147ZM19.4213 25.06C17.564 26.5667 16.964 27 16 27V29C17.8106 29 18.988 27.9907 20.6813 26.6147L19.4213 25.06Z" fill="#9747FF"/>
<path d="M24.6666 12H21.9999M21.9999 12H19.3333M21.9999 12V9.33331M21.9999 12V14.6666" stroke="#9747FF" stroke-width="2" stroke-linecap="round"/>
</svg>
