<svg width="30" height="30" viewBox="0 0 30 30" fill="none" xmlns="http://www.w3.org/2000/svg">
<path d="M15 20C17.0711 20 18.75 18.3211 18.75 16.25C18.75 14.1789 17.0711 12.5 15 12.5C12.9289 12.5 11.25 14.1789 11.25 16.25C11.25 18.3211 12.9289 20 15 20Z" stroke="#777777" stroke-width="1.875"/>
<path d="M12.2225 26.25H17.7775C21.6788 26.25 23.63 26.25 25.0312 25.3312C25.6359 24.935 26.1566 24.4236 26.5637 23.8262C27.5 22.4512 27.5 20.535 27.5 16.705C27.5 12.8737 27.5 10.9587 26.5637 9.58375C26.1566 8.98639 25.6359 8.475 25.0312 8.07875C24.1312 7.4875 23.0037 7.27625 21.2775 7.20125C20.4537 7.20125 19.745 6.58875 19.5837 5.795C19.4605 5.21358 19.1403 4.69254 18.6773 4.31994C18.2143 3.94733 17.6368 3.74601 17.0425 3.75H12.9575C11.7225 3.75 10.6588 4.60625 10.4163 5.795C10.255 6.58875 9.54625 7.20125 8.7225 7.20125C6.9975 7.27625 5.87 7.48875 4.96875 8.07875C4.36452 8.47508 3.84422 8.98646 3.4375 9.58375C2.5 10.9587 2.5 12.8737 2.5 16.705C2.5 20.535 2.5 22.45 3.43625 23.8262C3.84125 24.4212 4.36125 24.9325 4.96875 25.3312C6.37 26.25 8.32125 26.25 12.2225 26.25Z" stroke="#777777" stroke-width="1.875"/>
<path d="M23.75 12.5H22.5" stroke="#777777" stroke-width="1.875" stroke-linecap="round"/>
</svg>
