<svg width="32" height="32" viewBox="0 0 32 32" fill="none" xmlns="http://www.w3.org/2000/svg">
<path d="M5.33333 22V26.6667C5.33333 27.3739 5.61428 28.0522 6.11438 28.5523C6.61448 29.0524 7.29276 29.3333 8 29.3333H24C24.7072 29.3333 25.3855 29.0524 25.8856 28.5523C26.3857 28.0522 26.6667 27.3739 26.6667 26.6667V22M4 18.6667V17.3333C4 16.6261 4.28095 15.9478 4.78105 15.4477C5.28115 14.9476 5.95942 14.6667 6.66667 14.6667H25.3333C26.0406 14.6667 26.7189 14.9476 27.219 15.4477C27.719 15.9478 28 16.6261 28 17.3333V18.6667M16 10.6667V14.6667M16 10.6667C17.6827 10.6667 18.6667 9.37599 18.6667 7.16666C18.6667 4.95732 16 2.66666 16 2.66666C16 2.66666 13.3333 4.95732 13.3333 7.16666C13.3333 9.37599 14.3173 10.6667 16 10.6667Z" stroke="#61AF2B" stroke-width="2" stroke-linecap="round" stroke-linejoin="round"/>
<path d="M4 18.6667C4 19.7275 4.42143 20.7449 5.17157 21.4951C5.92172 22.2452 6.93913 22.6667 8 22.6667C9.06087 22.6667 10.0783 22.2452 10.8284 21.4951C11.5786 20.7449 12 19.7275 12 18.6667C12 19.7275 12.4214 20.7449 13.1716 21.4951C13.9217 22.2452 14.9391 22.6667 16 22.6667C17.0609 22.6667 18.0783 22.2452 18.8284 21.4951C19.5786 20.7449 20 19.7275 20 18.6667C20 19.7275 20.4214 20.7449 21.1716 21.4951C21.9217 22.2452 22.9391 22.6667 24 22.6667C25.0609 22.6667 26.0783 22.2452 26.8284 21.4951C27.5786 20.7449 28 19.7275 28 18.6667" stroke="#61AF2B" stroke-width="2" stroke-linecap="round" stroke-linejoin="round"/>
</svg>
