<svg width="31" height="31" viewBox="0 0 31 31" fill="none" xmlns="http://www.w3.org/2000/svg">
<path d="M23.2501 3.875H28.4167L27.1664 12.9167H23.2501M23.2501 3.875H5.81255H5.81191C-0.381634 3.875 3.3248 7.58854 5.06274 9.07848C5.52516 9.47567 5.81191 10.0466 5.81191 10.6562L5.81255 25.8333C5.81255 26.1759 5.94864 26.5044 6.19087 26.7467C6.43311 26.9889 6.76165 27.125 7.10422 27.125H21.9584C22.301 27.125 22.6295 26.9889 22.8717 26.7467C23.114 26.5044 23.2501 26.1759 23.2501 25.8333V3.875ZM16.7917 9.6875H19.3751M16.7917 14.8542H19.3751M16.7917 20.0208H19.3751" stroke="#61AF2B" stroke-width="2.58333" stroke-linecap="round" stroke-linejoin="round"/>
</svg>
